<svg xmlns="http://www.w3.org/2000/svg" version="1.1">
<rect x="75" y="200" width="30" height="270" fill="yellow" stroke-width="2" stroke="black" />
<rect x="395" y="200" width="30" height="270" fill="yellow" stroke-width="2" stroke="black" />
<rect x="715" y="200" width="30" height="270" fill="yellow" stroke-width="2" stroke="black" />
<rect x="70" y="400" width="700" height="90" fill="yellow" stroke-width="4" stroke="black" />
<rect x="40" y="350" width="140" height="50" fill="red" stroke-width="2" stroke="black" />
<rect x="50" y="300" width="110" height="50" fill="red" stroke-width="2" stroke="black" />
<rect x="60" y="250" width="80" height="50" fill="red" stroke-width="2" stroke="black" />
<rect x="75" y="600" width="30" height="270" fill="yellow" stroke-width="2" stroke="black" />
<rect x="395" y="600" width="30" height="270" fill="yellow" stroke-width="2" stroke="black" />
<rect x="715" y="600" width="30" height="270" fill="yellow" stroke-width="2" stroke="black" />
<rect x="70" y="800" width="700" height="90" fill="yellow" stroke-width="4" stroke="black" />
<rect x="40" y="750" width="140" height="50" fill="red" stroke-width="2" stroke="black" />
<rect x="50" y="700" width="110" height="50" fill="red" stroke-width="2" stroke="black" />
<rect x="680" y="750" width="80" height="50" fill="red" stroke-width="2" stroke="black" />
<rect x="75" y="1000" width="30" height="270" fill="yellow" stroke-width="2" stroke="black" />
<rect x="395" y="1000" width="30" height="270" fill="yellow" stroke-width="2" stroke="black" />
<rect x="715" y="1000" width="30" height="270" fill="yellow" stroke-width="2" stroke="black" />
<rect x="70" y="1200" width="700" height="90" fill="yellow" stroke-width="4" stroke="black" />
<rect x="40" y="1150" width="140" height="50" fill="red" stroke-width="2" stroke="black" />
<rect x="360" y="1150" width="110" height="50" fill="red" stroke-width="2" stroke="black" />
<rect x="680" y="1150" width="80" height="50" fill="red" stroke-width="2" stroke="black" />
<rect x="75" y="1400" width="30" height="270" fill="yellow" stroke-width="2" stroke="black" />
<rect x="395" y="1400" width="30" height="270" fill="yellow" stroke-width="2" stroke="black" />
<rect x="715" y="1400" width="30" height="270" fill="yellow" stroke-width="2" stroke="black" />
<rect x="70" y="1600" width="700" height="90" fill="yellow" stroke-width="4" stroke="black" />
<rect x="40" y="1550" width="140" height="50" fill="red" stroke-width="2" stroke="black" />
<rect x="360" y="1550" width="110" height="50" fill="red" stroke-width="2" stroke="black" />
<rect x="370" y="1500" width="80" height="50" fill="red" stroke-width="2" stroke="black" />
<rect x="75" y="1800" width="30" height="270" fill="yellow" stroke-width="2" stroke="black" />
<rect x="395" y="1800" width="30" height="270" fill="yellow" stroke-width="2" stroke="black" />
<rect x="715" y="1800" width="30" height="270" fill="yellow" stroke-width="2" stroke="black" />
<rect x="70" y="2000" width="700" height="90" fill="yellow" stroke-width="4" stroke="black" />
<rect x="660" y="1950" width="140" height="50" fill="red" stroke-width="2" stroke="black" />
<rect x="360" y="1950" width="110" height="50" fill="red" stroke-width="2" stroke="black" />
<rect x="370" y="1900" width="80" height="50" fill="red" stroke-width="2" stroke="black" />
<rect x="75" y="2200" width="30" height="270" fill="yellow" stroke-width="2" stroke="black" />
<rect x="395" y="2200" width="30" height="270" fill="yellow" stroke-width="2" stroke="black" />
<rect x="715" y="2200" width="30" height="270" fill="yellow" stroke-width="2" stroke="black" />
<rect x="70" y="2400" width="700" height="90" fill="yellow" stroke-width="4" stroke="black" />
<rect x="660" y="2350" width="140" height="50" fill="red" stroke-width="2" stroke="black" />
<rect x="360" y="2350" width="110" height="50" fill="red" stroke-width="2" stroke="black" />
<rect x="60" y="2350" width="80" height="50" fill="red" stroke-width="2" stroke="black" />
<rect x="1075" y="200" width="30" height="270" fill="yellow" stroke-width="2" stroke="black" />
<rect x="1395" y="200" width="30" height="270" fill="yellow" stroke-width="2" stroke="black" />
<rect x="1715" y="200" width="30" height="270" fill="yellow" stroke-width="2" stroke="black" />
<rect x="1070" y="400" width="700" height="90" fill="yellow" stroke-width="4" stroke="black" />
<rect x="1660" y="350" width="140" height="50" fill="red" stroke-width="2" stroke="black" />
<rect x="1670" y="300" width="110" height="50" fill="red" stroke-width="2" stroke="black" />
<rect x="1060" y="350" width="80" height="50" fill="red" stroke-width="2" stroke="black" />
<rect x="1075" y="600" width="30" height="270" fill="yellow" stroke-width="2" stroke="black" />
<rect x="1395" y="600" width="30" height="270" fill="yellow" stroke-width="2" stroke="black" />
<rect x="1715" y="600" width="30" height="270" fill="yellow" stroke-width="2" stroke="black" />
<rect x="1070" y="800" width="700" height="90" fill="yellow" stroke-width="4" stroke="black" />
<rect x="1660" y="750" width="140" height="50" fill="red" stroke-width="2" stroke="black" />
<rect x="1670" y="700" width="110" height="50" fill="red" stroke-width="2" stroke="black" />
<rect x="1680" y="650" width="80" height="50" fill="red" stroke-width="2" stroke="black" />
</svg>
